<?xml version="1.0" encoding="UTF-8" standalone="no"?>
<!DOCTYPE svg PUBLIC "-//W3C//DTD SVG 1.1//EN"
 "http://www.w3.org/Graphics/SVG/1.1/DTD/svg11.dtd">
<!-- Generated by graphviz version 2.47.1 (20210417.1919)
 -->
<!-- Title: Travel App Pages: 1 -->
<svg width="957pt" height="116pt"
 viewBox="0.00 0.00 956.50 116.00" xmlns="http://www.w3.org/2000/svg" xmlns:xlink="http://www.w3.org/1999/xlink">
<g id="graph0" class="graph" transform="scale(1 1) rotate(0) translate(4 112)">
<title>Travel App</title>
<polygon fill="white" stroke="transparent" points="-4,4 -4,-112 952.5,-112 952.5,4 -4,4"/>
<!-- Home Screen -->
<g id="node1" class="node">
<title>Home Screen</title>
<polygon fill="none" stroke="black" points="486,-108 387,-108 387,-72 486,-72 486,-108"/>
<text text-anchor="start" x="399.1" y="-85.4" font-family="Times New Roman,serif" font-size="14.00">Home Screen</text>
</g>
<!-- &#39;CreateRequestScreen&#39; -->
<g id="node2" class="node">
<title>&#39;CreateRequestScreen&#39;</title>
<polygon fill="none" stroke="black" points="288,-36 135,-36 135,0 288,0 288,-36"/>
<text text-anchor="start" x="147.48" y="-13.4" font-family="Times New Roman,serif" font-size="14.00">&#39;CreateRequestScreen&#39;</text>
</g>
<!-- Home Screen&#45;&gt;&#39;CreateRequestScreen&#39; -->
<g id="edge1" class="edge">
<title>Home Screen&#45;&gt;&#39;CreateRequestScreen&#39;</title>
<path fill="none" stroke="black" d="M386.84,-73.55C354.2,-63.39 311.15,-50 275.88,-39.03"/>
<polygon fill="black" stroke="black" points="276.74,-35.63 266.15,-36 274.66,-42.32 276.74,-35.63"/>
</g>
<!-- &#39;ReviewScreen&#39; -->
<g id="node3" class="node">
<title>&#39;ReviewScreen&#39;</title>
<polygon fill="none" stroke="black" points="574.5,-36 460.5,-36 460.5,0 574.5,0 574.5,-36"/>
<text text-anchor="start" x="472.41" y="-13.4" font-family="Times New Roman,serif" font-size="14.00">&#39;ReviewScreen&#39;</text>
</g>
<!-- Home Screen&#45;&gt;&#39;ReviewScreen&#39; -->
<g id="edge2" class="edge">
<title>Home Screen&#45;&gt;&#39;ReviewScreen&#39;</title>
<path fill="none" stroke="black" d="M456.52,-71.7C466.63,-62.97 479.04,-52.24 490.02,-42.75"/>
<polygon fill="black" stroke="black" points="492.43,-45.29 497.71,-36.1 487.85,-39.99 492.43,-45.29"/>
</g>
<!-- Notification Screen -->
<g id="node4" class="node">
<title>Notification Screen</title>
<polygon fill="none" stroke="black" points="183,-108 50,-108 50,-72 183,-72 183,-108"/>
<text text-anchor="start" x="62.38" y="-85.4" font-family="Times New Roman,serif" font-size="14.00">Notification Screen</text>
</g>
<!-- Notification Screen&#45;&gt;&#39;CreateRequestScreen&#39; -->
<g id="edge3" class="edge">
<title>Notification Screen&#45;&gt;&#39;CreateRequestScreen&#39;</title>
<path fill="none" stroke="black" d="M139.98,-71.7C152.06,-62.8 166.95,-51.82 180.02,-42.2"/>
<polygon fill="black" stroke="black" points="182.31,-44.85 188.29,-36.1 178.16,-39.22 182.31,-44.85"/>
</g>
<!-- &#39;PreviewScreen&#39; -->
<g id="node5" class="node">
<title>&#39;PreviewScreen&#39;</title>
<polygon fill="none" stroke="black" points="117,-36 0,-36 0,0 117,0 117,-36"/>
<text text-anchor="start" x="12.36" y="-13.4" font-family="Times New Roman,serif" font-size="14.00">&#39;PreviewScreen&#39;</text>
</g>
<!-- Notification Screen&#45;&gt;&#39;PreviewScreen&#39; -->
<g id="edge4" class="edge">
<title>Notification Screen&#45;&gt;&#39;PreviewScreen&#39;</title>
<path fill="none" stroke="black" d="M102.16,-71.7C95.21,-63.3 86.73,-53.07 79.1,-43.86"/>
<polygon fill="black" stroke="black" points="81.75,-41.57 72.67,-36.1 76.36,-46.04 81.75,-41.57"/>
</g>
<!-- Submission Screen -->
<g id="node6" class="node">
<title>Submission Screen</title>
<polygon fill="none" stroke="black" points="654.5,-108 524.5,-108 524.5,-72 654.5,-72 654.5,-108"/>
<text text-anchor="start" x="536.03" y="-85.4" font-family="Times New Roman,serif" font-size="14.00">Submission Screen</text>
</g>
<!-- &#39;HomeScreen&#39; -->
<g id="node7" class="node">
<title>&#39;HomeScreen&#39;</title>
<polygon fill="none" stroke="black" points="779,-36 674,-36 674,0 779,0 779,-36"/>
<text text-anchor="start" x="686.19" y="-13.4" font-family="Times New Roman,serif" font-size="14.00">&#39;HomeScreen&#39;</text>
</g>
<!-- Submission Screen&#45;&gt;&#39;HomeScreen&#39; -->
<g id="edge5" class="edge">
<title>Submission Screen&#45;&gt;&#39;HomeScreen&#39;</title>
<path fill="none" stroke="black" d="M623.01,-71.88C641.34,-62.51 664.24,-50.81 683.83,-40.8"/>
<polygon fill="black" stroke="black" points="685.54,-43.86 692.86,-36.19 682.36,-37.62 685.54,-43.86"/>
</g>
<!-- Create Request Screen -->
<g id="node8" class="node">
<title>Create Request Screen</title>
<polygon fill="none" stroke="black" points="948.5,-108 798.5,-108 798.5,-72 948.5,-72 948.5,-108"/>
<text text-anchor="start" x="810.14" y="-85.4" font-family="Times New Roman,serif" font-size="14.00">Create Request Screen</text>
</g>
<!-- Create Request Screen&#45;&gt;&#39;HomeScreen&#39; -->
<g id="edge6" class="edge">
<title>Create Request Screen&#45;&gt;&#39;HomeScreen&#39;</title>
<path fill="none" stroke="black" d="M837.54,-71.88C817.62,-62.39 792.68,-50.51 771.48,-40.42"/>
<polygon fill="black" stroke="black" points="772.88,-37.21 762.34,-36.07 769.87,-43.53 772.88,-37.21"/>
</g>
<!-- &#39;NotificationScreen&#39; -->
<g id="node9" class="node">
<title>&#39;NotificationScreen&#39;</title>
<polygon fill="none" stroke="black" points="943,-36 804,-36 804,0 943,0 943,-36"/>
<text text-anchor="start" x="816.47" y="-13.4" font-family="Times New Roman,serif" font-size="14.00">&#39;NotificationScreen&#39;</text>
</g>
<!-- Create Request Screen&#45;&gt;&#39;NotificationScreen&#39; -->
<g id="edge7" class="edge">
<title>Create Request Screen&#45;&gt;&#39;NotificationScreen&#39;</title>
<path fill="none" stroke="black" d="M873.5,-71.7C873.5,-63.98 873.5,-54.71 873.5,-46.11"/>
<polygon fill="black" stroke="black" points="877,-46.1 873.5,-36.1 870,-46.1 877,-46.1"/>
</g>
<!-- Review Screen -->
<g id="node10" class="node">
<title>Review Screen</title>
<polygon fill="none" stroke="black" points="780.5,-108 672.5,-108 672.5,-72 780.5,-72 780.5,-108"/>
<text text-anchor="start" x="684.33" y="-85.4" font-family="Times New Roman,serif" font-size="14.00">Review Screen</text>
</g>
<!-- Review Screen&#45;&gt;&#39;HomeScreen&#39; -->
<g id="edge8" class="edge">
<title>Review Screen&#45;&gt;&#39;HomeScreen&#39;</title>
<path fill="none" stroke="black" d="M726.5,-71.7C726.5,-63.98 726.5,-54.71 726.5,-46.11"/>
<polygon fill="black" stroke="black" points="730,-46.1 726.5,-36.1 723,-46.1 730,-46.1"/>
</g>
<!-- Preview Screen -->
<g id="node11" class="node">
<title>Preview Screen</title>
<polygon fill="none" stroke="black" points="318,-108 207,-108 207,-72 318,-72 318,-108"/>
<text text-anchor="start" x="219.27" y="-85.4" font-family="Times New Roman,serif" font-size="14.00">Preview Screen</text>
</g>
<!-- Preview Screen&#45;&gt;&#39;CreateRequestScreen&#39; -->
<g id="edge9" class="edge">
<title>Preview Screen&#45;&gt;&#39;CreateRequestScreen&#39;</title>
<path fill="none" stroke="black" d="M249.89,-71.7C243.9,-63.47 236.62,-53.48 230.02,-44.42"/>
<polygon fill="black" stroke="black" points="232.68,-42.13 223.96,-36.1 227.02,-46.25 232.68,-42.13"/>
</g>
<!-- &#39;SubmissionScreen&#39; -->
<g id="node12" class="node">
<title>&#39;SubmissionScreen&#39;</title>
<polygon fill="none" stroke="black" points="442.5,-36 306.5,-36 306.5,0 442.5,0 442.5,-36"/>
<text text-anchor="start" x="318.12" y="-13.4" font-family="Times New Roman,serif" font-size="14.00">&#39;SubmissionScreen&#39;</text>
</g>
<!-- Preview Screen&#45;&gt;&#39;SubmissionScreen&#39; -->
<g id="edge10" class="edge">
<title>Preview Screen&#45;&gt;&#39;SubmissionScreen&#39;</title>
<path fill="none" stroke="black" d="M289.9,-71.88C304.41,-62.81 322.42,-51.55 338.09,-41.76"/>
<polygon fill="black" stroke="black" points="340.37,-44.46 347,-36.19 336.66,-38.52 340.37,-44.46"/>
</g>
</g>
</svg>
