<?xml version="1.0" encoding="UTF-8" standalone="no"?>
<!DOCTYPE svg PUBLIC "-//W3C//DTD SVG 1.1//EN"
 "http://www.w3.org/Graphics/SVG/1.1/DTD/svg11.dtd">
<!-- Generated by graphviz version 2.47.1 (20210417.1919)
 -->
<!-- Title: Travel App Pages: 1 -->
<svg width="997pt" height="116pt"
 viewBox="0.00 0.00 996.50 116.00" xmlns="http://www.w3.org/2000/svg" xmlns:xlink="http://www.w3.org/1999/xlink">
<g id="graph0" class="graph" transform="scale(1 1) rotate(0) translate(4 112)">
<title>Travel App</title>
<polygon fill="white" stroke="transparent" points="-4,4 -4,-112 992.5,-112 992.5,4 -4,4"/>
<!-- Home Screen -->
<g id="node1" class="node">
<title>Home Screen</title>
<polygon fill="none" stroke="black" points="526,-108 427,-108 427,-72 526,-72 526,-108"/>
<text text-anchor="start" x="439.1" y="-85.4" font-family="Times New Roman,serif" font-size="14.00">Home Screen</text>
</g>
<!-- &#39;CreateRequestScreen&#39; -->
<g id="node2" class="node">
<title>&#39;CreateRequestScreen&#39;</title>
<polygon fill="none" stroke="black" points="288,-36 135,-36 135,0 288,0 288,-36"/>
<text text-anchor="start" x="147.48" y="-13.4" font-family="Times New Roman,serif" font-size="14.00">&#39;CreateRequestScreen&#39;</text>
</g>
<!-- Home Screen&#45;&gt;&#39;CreateRequestScreen&#39; -->
<g id="edge1" class="edge">
<title>Home Screen&#45;&gt;&#39;CreateRequestScreen&#39;</title>
<path fill="none" stroke="black" d="M426.97,-75.92C387.33,-65.45 331.12,-50.6 286.05,-38.69"/>
<polygon fill="black" stroke="black" points="286.88,-35.29 276.32,-36.12 285.09,-42.06 286.88,-35.29"/>
</g>
<!-- &#39;ReviewScreen&#39; -->
<g id="node3" class="node">
<title>&#39;ReviewScreen&#39;</title>
<polygon fill="none" stroke="black" points="574.5,-36 460.5,-36 460.5,0 574.5,0 574.5,-36"/>
<text text-anchor="start" x="472.41" y="-13.4" font-family="Times New Roman,serif" font-size="14.00">&#39;ReviewScreen&#39;</text>
</g>
<!-- Home Screen&#45;&gt;&#39;ReviewScreen&#39; -->
<g id="edge2" class="edge">
<title>Home Screen&#45;&gt;&#39;ReviewScreen&#39;</title>
<path fill="none" stroke="black" d="M486.63,-71.7C491.35,-63.64 497.06,-53.89 502.28,-44.98"/>
<polygon fill="black" stroke="black" points="505.45,-46.5 507.48,-36.1 499.41,-42.96 505.45,-46.5"/>
</g>
<!-- Notification Screen -->
<g id="node4" class="node">
<title>Notification Screen</title>
<polygon fill="none" stroke="black" points="183,-108 50,-108 50,-72 183,-72 183,-108"/>
<text text-anchor="start" x="62.38" y="-85.4" font-family="Times New Roman,serif" font-size="14.00">Notification Screen</text>
</g>
<!-- Notification Screen&#45;&gt;&#39;CreateRequestScreen&#39; -->
<g id="edge3" class="edge">
<title>Notification Screen&#45;&gt;&#39;CreateRequestScreen&#39;</title>
<path fill="none" stroke="black" d="M139.98,-71.7C152.06,-62.8 166.95,-51.82 180.02,-42.2"/>
<polygon fill="black" stroke="black" points="182.31,-44.85 188.29,-36.1 178.16,-39.22 182.31,-44.85"/>
</g>
<!-- &#39;PreviewScreen&#39; -->
<g id="node5" class="node">
<title>&#39;PreviewScreen&#39;</title>
<polygon fill="none" stroke="black" points="117,-36 0,-36 0,0 117,0 117,-36"/>
<text text-anchor="start" x="12.36" y="-13.4" font-family="Times New Roman,serif" font-size="14.00">&#39;PreviewScreen&#39;</text>
</g>
<!-- Notification Screen&#45;&gt;&#39;PreviewScreen&#39; -->
<g id="edge4" class="edge">
<title>Notification Screen&#45;&gt;&#39;PreviewScreen&#39;</title>
<path fill="none" stroke="black" d="M102.16,-71.7C95.21,-63.3 86.73,-53.07 79.1,-43.86"/>
<polygon fill="black" stroke="black" points="81.75,-41.57 72.67,-36.1 76.36,-46.04 81.75,-41.57"/>
</g>
<!-- Submission Screen -->
<g id="node6" class="node">
<title>Submission Screen</title>
<polygon fill="none" stroke="black" points="694.5,-108 564.5,-108 564.5,-72 694.5,-72 694.5,-108"/>
<text text-anchor="start" x="576.03" y="-85.4" font-family="Times New Roman,serif" font-size="14.00">Submission Screen</text>
</g>
<!-- &#39;HomeScreen&#39; -->
<g id="node7" class="node">
<title>&#39;HomeScreen&#39;</title>
<polygon fill="none" stroke="black" points="779,-36 674,-36 674,0 779,0 779,-36"/>
<text text-anchor="start" x="686.19" y="-13.4" font-family="Times New Roman,serif" font-size="14.00">&#39;HomeScreen&#39;</text>
</g>
<!-- Submission Screen&#45;&gt;&#39;HomeScreen&#39; -->
<g id="edge5" class="edge">
<title>Submission Screen&#45;&gt;&#39;HomeScreen&#39;</title>
<path fill="none" stroke="black" d="M653.48,-71.7C665.81,-62.8 681.02,-51.82 694.35,-42.2"/>
<polygon fill="black" stroke="black" points="696.74,-44.79 702.8,-36.1 692.64,-39.12 696.74,-44.79"/>
</g>
<!-- Create Request Screen -->
<g id="node8" class="node">
<title>Create Request Screen</title>
<polygon fill="none" stroke="black" points="988.5,-108 838.5,-108 838.5,-72 988.5,-72 988.5,-108"/>
<text text-anchor="start" x="850.14" y="-85.4" font-family="Times New Roman,serif" font-size="14.00">Create Request Screen</text>
</g>
<!-- &#39;NotificationScreen&#39; -->
<g id="node9" class="node">
<title>&#39;NotificationScreen&#39;</title>
<polygon fill="none" stroke="black" points="983,-36 844,-36 844,0 983,0 983,-36"/>
<text text-anchor="start" x="856.47" y="-13.4" font-family="Times New Roman,serif" font-size="14.00">&#39;NotificationScreen&#39;</text>
</g>
<!-- Create Request Screen&#45;&gt;&#39;NotificationScreen&#39; -->
<g id="edge6" class="edge">
<title>Create Request Screen&#45;&gt;&#39;NotificationScreen&#39;</title>
<path fill="none" stroke="black" d="M913.5,-71.7C913.5,-63.98 913.5,-54.71 913.5,-46.11"/>
<polygon fill="black" stroke="black" points="917,-46.1 913.5,-36.1 910,-46.1 917,-46.1"/>
</g>
<!-- Review Screen -->
<g id="node10" class="node">
<title>Review Screen</title>
<polygon fill="none" stroke="black" points="820.5,-108 712.5,-108 712.5,-72 820.5,-72 820.5,-108"/>
<text text-anchor="start" x="724.33" y="-85.4" font-family="Times New Roman,serif" font-size="14.00">Review Screen</text>
</g>
<!-- Review Screen&#45;&gt;&#39;HomeScreen&#39; -->
<g id="edge7" class="edge">
<title>Review Screen&#45;&gt;&#39;HomeScreen&#39;</title>
<path fill="none" stroke="black" d="M756.61,-71.7C752.01,-63.64 746.44,-53.89 741.35,-44.98"/>
<polygon fill="black" stroke="black" points="744.27,-43.05 736.27,-36.1 738.2,-46.52 744.27,-43.05"/>
</g>
<!-- Preview Screen -->
<g id="node11" class="node">
<title>Preview Screen</title>
<polygon fill="none" stroke="black" points="318,-108 207,-108 207,-72 318,-72 318,-108"/>
<text text-anchor="start" x="219.27" y="-85.4" font-family="Times New Roman,serif" font-size="14.00">Preview Screen</text>
</g>
<!-- Preview Screen&#45;&gt;&#39;CreateRequestScreen&#39; -->
<g id="edge8" class="edge">
<title>Preview Screen&#45;&gt;&#39;CreateRequestScreen&#39;</title>
<path fill="none" stroke="black" d="M249.89,-71.7C243.9,-63.47 236.62,-53.48 230.02,-44.42"/>
<polygon fill="black" stroke="black" points="232.68,-42.13 223.96,-36.1 227.02,-46.25 232.68,-42.13"/>
</g>
<!-- &#39;SubmissionScreen&#39; -->
<g id="node12" class="node">
<title>&#39;SubmissionScreen&#39;</title>
<polygon fill="none" stroke="black" points="442.5,-36 306.5,-36 306.5,0 442.5,0 442.5,-36"/>
<text text-anchor="start" x="318.12" y="-13.4" font-family="Times New Roman,serif" font-size="14.00">&#39;SubmissionScreen&#39;</text>
</g>
<!-- Preview Screen&#45;&gt;&#39;SubmissionScreen&#39; -->
<g id="edge9" class="edge">
<title>Preview Screen&#45;&gt;&#39;SubmissionScreen&#39;</title>
<path fill="none" stroke="black" d="M289.9,-71.88C304.41,-62.81 322.42,-51.55 338.09,-41.76"/>
<polygon fill="black" stroke="black" points="340.37,-44.46 347,-36.19 336.66,-38.52 340.37,-44.46"/>
</g>
</g>
</svg>
